<?xml version="1.0" standalone="no"?>
<!DOCTYPE svg PUBLIC "-//W3C//DTD SVG 20010904//EN"
 "http://www.w3.org/TR/2001/REC-SVG-20010904/DTD/svg10.dtd">
<svg version="1.0" xmlns="http://www.w3.org/2000/svg"
 width="2419.000000pt" height="2065.000000pt" viewBox="0 0 2419.000000 2065.000000"
 preserveAspectRatio="xMidYMid meet">

<g transform="translate(0.000000,2065.000000) scale(0.100000,-0.100000)"
fill="#000000" stroke="none">
<path d="M19120 20646 c-5 -4 -7878 -22 -14962 -32 l-4158 -6 0 -804 0 -804
9450 0 c6627 0 9480 -3 9548 -11 396 -43 836 -193 1165 -397 902 -557 1252
-1565 1021 -2936 -204 -1213 -1810 -7294 -3895 -14742 -137 -490 -249 -896
-249 -903 0 -8 639 -11 2470 -11 1359 0 2470 2 2470 4 0 2 492 3707 1094 8233
602 4525 1099 8289 1105 8362 14 171 14 613 1 796 -100 1365 -663 2367 -1610
2864 -363 190 -733 299 -1250 368 -108 14 -267 17 -1160 20 -570 2 -1038 2
-1040 -1z"/>
</g>
</svg>
