<?xml version="1.0" standalone="no"?>
<!DOCTYPE svg PUBLIC "-//W3C//DTD SVG 20010904//EN"
 "http://www.w3.org/TR/2001/REC-SVG-20010904/DTD/svg10.dtd">
<svg version="1.0" xmlns="http://www.w3.org/2000/svg"
 width="819.200000pt" height="819.200000pt" viewBox="0 0 819.200000 819.200000"
 preserveAspectRatio="xMidYMid meet">
<metadata>
Created by potrace 1.13, written by Peter Selinger 2001-2015
</metadata>
<g transform="translate(0.000000,819.200000) scale(0.080000,-0.080000)"
fill="#000000" stroke="none">
<path d="M6105 7749 c-36 -5 -92 -25 -140 -48 -175 -88 -277 -233 -306 -438
-19 -138 30 -313 119 -422 20 -25 98 -109 172 -186 181 -188 332 -345 471
-490 271 -284 381 -397 496 -515 l122 -125 -2757 -5 -2757 -5 -65 -23 c-298
-106 -451 -439 -339 -738 21 -55 102 -177 139 -207 61 -51 124 -90 186 -114
l69 -28 2804 -3 2803 -2 -42 -48 c-24 -26 -98 -103 -164 -172 -67 -69 -173
-180 -235 -245 -179 -187 -323 -337 -480 -500 -80 -82 -186 -193 -237 -245
-169 -176 -216 -234 -251 -307 -135 -282 -24 -618 248 -752 156 -77 313 -76
469 1 84 42 78 36 1139 1143 117 123 259 271 481 500 144 150 508 530 657 686
56 59 115 131 132 160 109 189 102 437 -17 613 -32 47 -179 203 -798 846 -66
69 -239 249 -384 400 -145 151 -318 331 -384 400 -67 69 -256 266 -421 438
-165 173 -322 328 -350 346 -72 47 -143 74 -222 86 -76 11 -75 11 -158 -1z"/>
<path d="M1443 492 l-1443 -2 0 -245 0 -245 1486 0 1485 0 -2 197 c-2 144 1
198 9 201 9 3 9 9 1 25 -17 33 -47 58 -54 47 -4 -6 4 -14 17 -19 13 -6 18 -10
11 -10 -23 -2 -43 12 -43 29 0 10 -6 19 -12 21 -7 2 -662 3 -1455 1z m1468
-58 c7 -9 22 -14 36 -11 13 2 23 1 23 -4 0 -4 -10 -9 -22 -11 -24 -4 -68 18
-68 33 0 14 16 10 31 -7z m-2583 -57 c9 -7 16 -5 25 6 8 11 20 15 35 11 22 -6
32 -34 12 -34 -7 0 -7 -6 0 -19 7 -13 7 -22 0 -26 -5 -3 -10 -1 -10 5 0 28
-29 40 -92 38 -59 -1 -60 -2 -13 -5 68 -5 98 -21 92 -50 -3 -19 -1 -21 14 -13
25 14 29 13 29 -7 0 -14 -2 -15 -9 -5 -6 11 -10 11 -18 0 -22 -27 -24 -56 -6
-67 17 -10 17 -10 1 -11 -12 0 -18 -8 -18 -23 0 -22 -3 -23 -65 -19 -40 3 -70
0 -79 -7 -10 -9 -17 -7 -27 6 -9 11 -10 14 -1 9 6 -4 12 -2 12 3 0 6 -6 11
-12 11 -10 0 -10 2 -1 8 13 8 15 152 2 152 -10 0 -26 -22 -32 -45 -3 -11 -5
-2 -4 20 0 22 6 43 11 48 8 5 6 10 -3 16 -11 7 -10 10 5 14 28 7 137 -4 152
-16z m128 -16 c9 7 14 8 14 1 0 -6 3 -19 7 -29 6 -16 5 -16 -10 -4 -15 12 -17
11 -17 -13 0 -22 4 -26 30 -26 27 0 30 3 30 30 0 31 19 43 21 13 0 -15 2 -15
9 2 8 19 9 19 9 -2 1 -13 -4 -23 -10 -23 -5 0 -7 -4 -4 -10 15 -24 113 10 116
40 1 11 3 10 6 -2 6 -23 18 -23 43 2 23 23 26 46 8 53 -7 3 3 6 22 6 32 0 33
-1 17 -13 -17 -13 -16 -15 14 -21 21 -5 34 -4 37 3 2 6 19 -4 37 -21 27 -26
34 -40 32 -65 -2 -30 -19 -43 -31 -23 -3 5 -14 8 -24 6 -9 -1 -11 0 -4 2 6 3
12 9 12 14 0 6 9 7 21 4 16 -5 20 -3 17 6 -3 8 -13 13 -23 11 -9 -2 -15 0 -12
5 3 5 -1 19 -10 33 -8 14 -12 18 -9 9 4 -14 -1 -15 -35 -8 -41 9 -59 6 -59
-12 0 -5 24 -9 53 -9 40 -1 48 -3 34 -11 -9 -6 -15 -15 -11 -20 3 -6 -3 -13
-15 -16 -26 -7 -28 -23 -2 -23 29 0 35 -17 10 -30 -13 -7 -19 -8 -15 -2 7 12
-12 27 -21 18 -4 -3 2 -15 12 -26 13 -15 21 -17 31 -9 15 12 34 4 33 -14 0 -9
-2 -9 -6 1 -2 6 -10 12 -16 12 -8 0 -7 -4 1 -12 16 -16 15 -27 0 -24 -28 6
-54 21 -70 41 -17 20 -17 19 -18 -22 0 -47 -19 -60 -21 -15 -1 15 -1 31 0 35
1 5 -13 -2 -31 -16 -18 -13 -44 -24 -58 -24 -14 -1 -19 1 -11 4 11 5 11 7 0
15 -12 7 -11 8 1 7 21 -3 63 16 79 35 12 14 9 16 -28 16 -23 0 -55 -7 -71 -15
-31 -16 -42 -32 -15 -21 8 3 15 1 15 -4 0 -6 -7 -10 -16 -10 -12 0 -15 -6 -10
-26 5 -17 3 -25 -4 -22 -6 2 -11 7 -10 12 1 5 -4 13 -12 17 -10 7 -10 9 0 9 6
0 12 11 12 25 0 24 -3 26 -40 23 -34 -2 -40 -6 -45 -30 -8 -36 -23 -44 -43
-24 -16 16 -16 17 2 10 16 -6 17 -3 11 17 -5 19 -4 21 5 9 9 -12 11 -10 7 12
-2 15 0 25 4 22 5 -3 8 19 8 48 -1 29 -3 45 -6 36 -7 -28 -20 -21 -18 10 5 65
6 69 17 39 8 -22 13 -26 24 -16z m584 28 c0 -4 -10 -10 -22 -14 -22 -7 -22 -7
-3 -13 11 -4 21 -15 23 -26 3 -17 2 -17 -20 -2 -25 18 -48 21 -48 6 0 -5 9
-10 21 -10 11 0 17 -5 14 -10 -4 -6 -10 -8 -15 -5 -4 3 -16 2 -27 -2 -16 -6
-16 -8 5 -13 13 -3 23 -8 23 -12 -1 -5 -1 -19 -1 -33 0 -16 -6 -25 -15 -25
-12 0 -11 -4 5 -20 24 -24 25 -36 4 -44 -8 -3 -12 -2 -9 4 3 5 1 18 -5 27 -7
12 -10 13 -7 3 7 -24 -12 -50 -36 -50 -20 1 -21 2 -4 14 24 19 23 66 -2 66
-11 0 -22 8 -24 18 -3 9 -5 4 -6 -13 -2 -43 -12 -75 -23 -75 -6 0 -8 12 -4 28
l6 27 -15 -27 c-9 -16 -20 -28 -26 -28 -14 0 1 53 20 67 9 6 20 9 24 6 5 -3 7
21 6 53 -3 59 -3 59 27 62 16 1 40 5 53 8 37 8 6 24 -44 22 l-40 -1 45 -7 45
-7 -40 -2 c-22 -1 -51 -4 -65 -8 -25 -6 -25 -6 3 17 25 20 36 22 85 17 35 -4
49 -3 37 3 -15 6 -11 8 17 7 21 -1 38 -5 38 -8z m205 -6 c-12 -31 -24 -73 -20
-73 3 0 11 12 19 28 8 15 15 21 16 13 0 -8 -8 -23 -17 -34 -17 -18 -17 -19 1
-16 22 5 41 58 26 73 -15 15 -12 22 12 23 13 1 18 -1 13 -5 -16 -11 -15 -92 1
-92 8 0 14 5 14 11 0 5 3 8 8 6 4 -3 8 6 9 20 0 14 6 30 12 36 7 7 9 0 7 -24
-2 -19 -1 -26 1 -16 5 19 19 22 29 6 3 -6 0 -15 -7 -20 -10 -6 -7 -8 9 -6 14
1 21 6 18 14 -3 7 -1 13 4 13 6 0 10 -7 10 -15 0 -8 5 -15 11 -15 6 0 9 8 6
18 -11 41 -11 46 1 47 7 0 17 7 23 15 9 12 9 11 3 -5 -4 -11 -8 -33 -9 -50 -1
-19 -8 -31 -18 -33 -13 -3 -16 -16 -16 -65 1 -34 6 -65 11 -68 5 -4 -18 -6
-51 -5 l-61 1 0 37 c0 29 -3 36 -15 32 -9 -4 -15 -19 -15 -40 0 -29 -4 -34
-22 -34 -21 1 -21 2 -5 11 21 12 24 54 2 46 -23 -9 -28 11 -5 23 11 6 20 20
20 30 0 22 -20 26 -49 11 -15 -8 -17 -6 -16 19 1 16 4 33 8 36 4 4 7 15 7 24
0 14 18 40 28 40 2 0 1 -8 -3 -17z m81 -5 c-9 -12 -16 -30 -16 -40 0 -10 -5
-18 -10 -18 -12 0 -1 53 12 58 4 2 6 8 2 13 -3 5 2 9 11 9 15 0 15 -2 1 -22z
m252 -11 c14 -38 15 -63 2 -32 -8 19 -9 19 -9 -3 -1 -21 2 -22 54 -19 30 2 55
0 55 -5 0 -5 -8 -8 -17 -7 -10 1 -22 0 -28 -1 -5 -1 -28 -2 -50 -2 -36 -1 -36
-2 -7 -5 26 -3 32 -9 32 -29 0 -22 -4 -24 -52 -24 -60 0 -55 16 7 23 40 4 40
4 -7 5 -46 2 -62 14 -35 26 6 3 1 4 -13 3 -24 -2 -25 -5 -26 -72 -1 -38 -2
-74 -3 -79 -2 -12 -31 14 -31 28 0 6 5 4 10 -4 7 -11 10 0 10 39 0 46 -2 52
-15 41 -13 -10 -15 -9 -15 9 0 11 5 21 12 21 6 0 8 3 4 7 -4 5 -14 -1 -22 -11
-12 -17 -14 -17 -14 -3 0 9 11 19 25 23 21 5 23 9 14 21 -9 11 -9 17 1 26 10
10 12 9 7 -5 -4 -10 -2 -18 3 -18 6 0 10 7 10 15 0 8 5 15 11 15 6 0 9 -9 6
-20 -5 -18 -1 -20 27 -18 28 2 32 5 28 22 -5 20 -5 20 -13 0 -13 -32 -10 -3 3
33 7 18 15 33 18 33 3 0 11 -15 18 -33z m262 -2 c0 -11 -11 -15 -40 -15 -29 0
-40 4 -40 15 0 11 11 15 40 15 29 0 40 -4 40 -15z m-141 -67 c-4 -40 1 -59 11
-53 17 10 11 0 -10 -17 -19 -17 -19 -16 -14 11 5 25 2 30 -22 39 l-29 10 28 1
c17 1 27 6 27 16 0 8 2 15 5 15 3 0 5 -10 4 -22z m166 12 c-2 -3 0 -12 5 -20
7 -11 11 -11 24 -1 9 7 14 17 11 21 -3 5 3 7 12 5 10 -1 17 -10 17 -19 -1 -9
3 -15 9 -13 7 2 20 -6 30 -17 15 -17 18 -18 13 -3 -3 11 0 17 9 17 14 0 22
-53 15 -100 -1 -8 12 0 30 18 30 32 31 34 14 53 -13 15 -19 17 -26 7 -6 -10
-8 -8 -8 5 0 9 5 17 11 17 5 0 7 6 3 13 -4 6 5 1 19 -12 22 -20 29 -22 42 -11
9 8 14 22 12 32 -3 10 -1 16 4 12 5 -3 9 -12 9 -20 0 -8 5 -14 10 -14 6 0 10
-8 9 -17 0 -11 -3 -13 -6 -6 -3 10 -9 9 -21 -3 -14 -15 -14 -19 3 -50 10 -19
21 -34 24 -34 4 0 8 23 9 51 1 59 4 64 29 55 14 -6 15 -9 4 -15 -9 -6 -12 -23
-10 -52 l4 -44 -37 0 c-20 0 -35 1 -33 4 6 6 -14 41 -24 41 -4 0 -13 -10 -20
-23 -8 -15 -20 -23 -34 -21 -12 1 -25 3 -29 3 -5 1 -8 16 -8 34 0 20 -8 41
-19 51 -17 16 -18 15 -13 -32 3 -39 1 -50 -12 -55 -10 -4 -15 -3 -11 3 3 6 2
10 -4 10 -5 0 -12 -4 -16 -10 -15 -25 -70 22 -56 49 11 20 6 70 -9 85 -8 8
-10 4 -6 -16 6 -36 -16 -58 -60 -58 -31 0 -34 -2 -34 -30 0 -17 -5 -30 -12
-30 -10 0 -12 20 -10 75 l4 76 68 -3 c38 -1 67 -5 65 -8z m117 -5 c5 -6 8 -5
8 3 0 6 10 12 23 11 12 0 16 -3 9 -6 -6 -2 -10 -9 -6 -14 6 -10 -26 -12 -50
-3 -9 3 -16 10 -16 15 0 11 23 7 32 -6z m97 4 c-11 -7 -9 -9 6 -10 11 0 14 -3
7 -6 -6 -2 -10 -9 -6 -14 3 -5 0 -9 -5 -9 -6 0 -11 4 -11 9 0 5 -7 16 -14 24
-13 13 -12 15 11 15 18 0 21 -3 12 -9z m121 -1 c0 -4 5 -8 11 -8 5 0 7 5 4 10
-3 6 -1 10 4 10 17 0 13 -18 -6 -29 -17 -10 -17 -10 -1 -11 10 0 22 9 28 20
13 25 32 25 53 2 13 -14 16 -30 11 -68 -9 -76 -18 -84 -24 -24 -4 45 -9 55
-25 58 l-20 4 20 -16 c20 -15 20 -15 -2 -9 -21 5 -23 2 -23 -36 0 -29 4 -40
12 -35 7 4 8 3 4 -4 -4 -6 -13 -9 -21 -5 -10 3 -15 20 -15 54 0 36 -4 51 -16
56 -13 5 -13 8 -2 15 8 6 2 7 -18 3 -22 -4 -33 -2 -37 8 -4 10 4 14 29 14 19
0 34 -4 34 -9z m136 -7 c10 -21 11 -91 2 -91 -8 0 -12 22 -8 53 1 10 -6 27
-14 36 -14 15 -14 18 -1 18 8 0 17 -7 21 -16z m134 -1 c12 -12 15 -20 8 -20
-9 0 -9 -3 1 -9 13 -8 13 -12 0 -27 -8 -10 -9 -15 -3 -11 7 4 9 -4 6 -24 -2
-16 -9 -29 -14 -29 -5 0 -7 -4 -4 -9 12 -19 -49 -1 -69 21 -18 19 -21 28 -14
54 10 36 49 59 69 41 10 -10 10 -7 1 11 -14 27 -7 28 19 2z m136 4 c-3 -7 5
-9 21 -6 14 3 20 8 14 11 -6 4 5 7 24 8 19 1 32 -3 29 -8 -3 -5 -10 -7 -15 -4
-5 4 -6 -2 -2 -11 4 -11 8 -13 11 -6 2 7 8 12 14 12 6 0 7 -7 4 -16 -6 -15 -4
-15 10 -3 10 8 12 15 5 17 -21 7 -11 17 18 19 22 2 32 -3 36 -18 4 -10 10 -17
14 -15 4 3 7 -8 7 -24 0 -16 -3 -27 -8 -24 -5 3 -6 9 -3 14 3 5 0 12 -6 16 -9
5 -10 -8 -7 -48 3 -42 1 -55 -9 -55 -11 0 -14 12 -12 44 3 44 -11 71 -30 59
-6 -4 -11 -27 -11 -52 0 -24 -4 -44 -10 -44 -5 0 -10 18 -10 40 0 22 -5 40
-11 40 -5 0 -7 5 -3 11 4 7 1 10 -7 7 -9 -3 -14 -21 -15 -48 0 -25 -6 -45 -15
-50 -11 -7 -13 2 -11 47 2 32 0 53 -5 50 -5 -3 -17 5 -27 19 -20 25 -46 32
-46 12 0 -6 3 -9 6 -5 3 3 15 -2 26 -12 21 -20 34 -106 18 -116 -6 -3 -7 2 -4
12 5 16 4 16 -8 2 -10 -12 -21 -13 -45 -7 -35 9 -42 23 -45 86 -1 28 -6 42
-15 42 -7 0 -13 4 -13 9 0 5 32 8 70 7 46 -1 69 -5 66 -12z m-934 -51 c6 -22
-1 -43 -13 -43 -6 0 -9 6 -8 13 3 28 -2 39 -16 33 -8 -3 -15 -1 -15 4 0 18 47
11 52 -7z m-573 -9 c5 4 13 2 16 -4 4 -6 3 -10 -2 -9 -21 4 -33 -2 -33 -16 0
-8 -4 -15 -10 -15 -5 0 -10 7 -10 15 0 8 5 15 11 15 8 0 7 6 -2 18 -13 15 -12
16 3 4 9 -8 22 -11 27 -8z m531 -14 c-13 -9 -13 -11 0 -21 11 -8 12 -12 3 -16
-7 -2 -13 -13 -13 -23 0 -10 -4 -22 -10 -25 -5 -3 -10 1 -10 9 0 12 -10 16
-36 16 -19 0 -33 -4 -30 -9 3 -5 -1 -11 -9 -15 -12 -4 -15 3 -15 29 0 19 0 38
0 43 0 4 26 10 57 13 32 3 63 6 68 7 6 1 3 -3 -5 -8z m-700 -18 c0 -5 -6 -17
-14 -28 -19 -25 -31 -12 -14 15 13 21 28 28 28 13z m780 -17 c-6 -8 -9 -19 -5
-25 3 -5 2 -10 -4 -10 -5 0 -12 4 -16 10 -3 5 -13 6 -22 3 -11 -4 -14 -2 -11
8 3 8 15 13 27 12 11 -2 21 2 21 7 0 6 5 10 11 10 8 0 8 -4 -1 -15z m-631 -11
c5 3 11 0 14 -7 3 -8 -5 -12 -23 -12 -18 0 -26 4 -23 13 4 8 0 10 -11 6 -9 -3
-13 -11 -9 -17 4 -6 1 -7 -7 -2 -10 6 -9 11 5 21 13 10 22 11 31 3 7 -6 17 -8
23 -5z m1278 -3 c-1 -16 -5 -18 -19 -10 -24 13 -23 29 1 29 13 0 19 -6 18 -19z
m-1871 -59 c4 -40 3 -42 -16 -30 -22 14 -24 25 -10 48 6 9 5 17 -3 23 -8 5 -6
7 7 5 14 -2 19 -13 22 -46z m1181 17 c1 -10 -4 -19 -12 -19 -7 0 -22 -3 -32
-6 -14 -5 -13 -2 5 13 17 14 20 21 11 30 -9 9 -7 11 7 7 11 -3 20 -14 21 -25z
m-627 -14 c0 -22 -4 -25 -34 -25 -19 0 -38 -4 -41 -10 -12 -19 -85 -9 -85 11
0 6 9 5 21 -1 28 -15 38 -4 13 15 -10 8 -14 15 -7 15 6 0 18 -7 27 -15 13 -14
19 -13 58 9 24 14 44 25 46 26 1 0 2 -11 2 -25z m720 -24 c0 -3 -19 -6 -42 -6
-24 -1 -51 -5 -60 -9 -11 -5 -18 -4 -18 2 0 5 9 12 20 15 12 3 20 14 20 26 l0
21 40 -21 c22 -12 40 -24 40 -28z m-1227 -7 c-3 -8 -12 -14 -20 -14 -13 0 -13
3 -3 15 10 12 9 16 -4 21 -9 3 -13 10 -10 16 9 14 44 -21 37 -38z m77 31 c7
-8 10 -22 6 -30 -5 -14 -8 -14 -31 1 -23 15 -25 15 -25 -2 0 -9 -3 -15 -6 -11
-4 3 -4 18 0 32 7 28 36 34 56 10z m858 -12 l20 -28 -24 0 c-13 0 -24 3 -24 8
0 4 5 7 12 7 9 0 9 3 0 12 -12 12 -16 28 -8 28 3 0 13 -12 24 -27z m-1068 -5
c0 21 20 13 20 -8 0 -26 -26 -26 -40 -1 -15 29 -12 38 5 15 8 -11 15 -14 15
-6z m284 7 c-4 -9 0 -15 9 -15 9 0 18 8 21 18 3 10 4 7 3 -8 -2 -20 -8 -25
-35 -26 -35 -2 -51 10 -26 20 8 3 12 10 9 16 -3 5 1 10 9 10 10 0 13 -6 10
-15z m1727 5 c23 -13 26 -40 4 -40 -8 0 -15 5 -15 10 0 6 -80 10 -221 10 -196
0 -220 2 -209 15 10 12 47 15 217 15 122 0 212 -4 224 -10z m99 -5 c10 -13 9
-15 -9 -15 -11 0 -21 -4 -21 -10 0 -5 -7 -10 -15 -10 -21 0 -19 27 3 39 23 14
27 13 42 -4z m290 0 c0 -12 -18 -15 -101 -15 -89 0 -100 2 -89 15 9 11 35 15
101 15 72 0 89 -3 89 -15z m-1520 -25 c0 -5 -17 -10 -37 -10 -28 0 -34 3 -23
10 20 13 60 13 60 0z"/>
<path d="M210 382 l25 -8 -32 -12 c-18 -6 -33 -13 -33 -15 0 -5 3 -5 110 -11
38 -1 41 -1 7 1 -70 5 -73 25 -6 34 33 5 37 6 14 8 -16 0 -48 3 -70 6 -29 3
-33 3 -15 -3z"/>
<path d="M223 300 c-1 -11 2 -20 6 -20 4 0 16 9 26 20 18 19 17 20 -6 20 -18
0 -25 -6 -26 -20z"/>
<path d="M300 308 c0 -5 7 -8 15 -8 18 0 19 -11 3 -29 -10 -11 -10 -13 0 -7 6
4 12 2 12 -3 0 -6 4 -11 8 -11 5 0 9 15 10 34 1 30 -1 34 -23 32 -14 0 -25 -4
-25 -8z"/>
<path d="M298 240 c12 -5 22 -14 22 -20 0 -14 -7 -13 -42 8 -25 14 -32 14 -36
3 -4 -11 -6 -11 -13 0 -7 11 -9 10 -9 -3 0 -10 6 -18 13 -18 8 0 7 -4 -3 -10
-18 -11 -18 -11 40 -15 44 -3 44 -3 13 7 -18 6 -33 17 -33 24 0 11 8 10 38 -4
20 -9 39 -20 40 -24 8 -18 22 -6 20 18 -2 17 -11 29 -26 35 -31 12 -54 10 -24
-1z"/>
<path d="M595 283 c-16 -15 -16 -17 0 -26 12 -6 20 -5 26 4 5 8 9 9 9 3 0 -6
6 -11 14 -11 8 0 12 6 9 14 -3 7 -9 13 -15 13 -5 0 -6 5 -3 10 10 17 -22 11
-40 -7z"/>
<path d="M660 292 c0 -5 7 -17 15 -28 14 -18 14 -18 15 9 0 17 -5 27 -15 27
-8 0 -15 -4 -15 -8z"/>
<path d="M710 291 c0 -5 6 -12 13 -14 10 -4 10 -6 0 -6 -7 -1 -13 -5 -13 -11
0 -19 17 -10 28 15 10 22 9 25 -8 25 -11 0 -20 -4 -20 -9z"/>
<path d="M457 263 c-16 -16 -4 -23 38 -23 25 0 45 -4 45 -10 0 -6 9 -5 24 2
21 9 23 13 11 24 -14 14 -106 20 -118 7z"/>
<path d="M1330 270 c0 -16 7 -20 30 -20 23 0 30 4 30 20 0 16 -7 20 -30 20
-23 0 -30 -4 -30 -20z"/>
<path d="M1330 205 c0 -21 5 -25 30 -25 25 0 30 4 30 25 0 21 -5 25 -30 25
-25 0 -30 -4 -30 -25z"/>
<path d="M1750 276 c0 -23 4 -25 33 -23 24 2 33 8 35 25 2 12 -1 22 -7 22 -6
0 -8 -6 -5 -14 3 -8 1 -17 -4 -20 -5 -3 -9 2 -8 12 0 11 -7 18 -21 20 -19 3
-23 -1 -23 -22z"/>
<path d="M1890 255 c-11 -13 -9 -15 18 -13 24 2 29 5 20 15 -14 17 -23 16 -38
-2z"/>
<path d="M1893 223 c-7 -2 -13 -9 -13 -14 0 -6 4 -8 9 -5 5 4 11 0 14 -6 3
-10 7 -10 20 1 10 7 17 17 17 22 0 10 -27 11 -47 2z"/>
<path d="M2411 256 c-16 -19 -11 -46 12 -60 14 -9 21 -7 32 7 27 37 -16 88
-44 53z"/>
<path d="M2530 255 c-8 -9 -9 -15 -2 -15 6 0 14 5 17 10 4 6 11 8 16 4 5 -3 7
-10 3 -15 -3 -5 -10 -7 -15 -4 -5 4 -9 -2 -9 -12 0 -15 -2 -16 -10 -3 -5 8
-10 10 -10 4 0 -18 28 -37 45 -30 11 4 14 14 11 33 -2 16 -5 31 -5 36 -2 12
-28 8 -41 -8z"/>
<path d="M1530 197 c0 -9 13 -14 35 -15 25 -1 35 3 35 13 0 10 -11 15 -35 15
-23 0 -35 -5 -35 -13z"/>
<path d="M2984 190 c0 -107 2 -151 3 -97 2 53 2 141 0 195 -1 53 -3 9 -3 -98z"/>
</g>
</svg>
