<?xml version="1.0" standalone="no"?>
<!DOCTYPE svg PUBLIC "-//W3C//DTD SVG 20010904//EN"
 "http://www.w3.org/TR/2001/REC-SVG-20010904/DTD/svg10.dtd">
<svg version="1.0" xmlns="http://www.w3.org/2000/svg"
 width="1486.400000pt" height="1376.800000pt" viewBox="0 0 1486.400000 1376.800000"
 preserveAspectRatio="xMidYMid meet">
<metadata>
Created by potrace 1.13, written by Peter Selinger 2001-2015
</metadata>
<g transform="translate(0.000000,1376.800000) scale(0.080000,-0.080000)"
fill="#000000" stroke="none">
<path d="M10120 17185 c-6966 -26 -6975 -26 -7145 -49 -539 -74 -920 -184
-1320 -381 -775 -381 -1240 -991 -1385 -1818 -19 -106 -26 -497 -145 -7507
-69 -4067 -125 -7403 -125 -7412 0 -17 115 -18 2286 -18 l2286 0 -6 33 c-10
57 -340 2193 -515 3342 -735 4800 -1177 7858 -1310 9050 -67 596 -77 1210 -26
1598 128 972 625 1449 1595 1527 75 6 2460 -5 6780 -30 3666 -22 6851 -40
7078 -40 l412 0 0 273 c0 149 -3 539 -7 865 l-6 592 -1126 -1 c-619 -1 -3914
-12 -7321 -24z"/>
</g>
</svg>
