<?xml version="1.0" standalone="no"?>
<!DOCTYPE svg PUBLIC "-//W3C//DTD SVG 20010904//EN"
 "http://www.w3.org/TR/2001/REC-SVG-20010904/DTD/svg10.dtd">
<svg version="1.0" xmlns="http://www.w3.org/2000/svg"
 width="40.800000pt" height="104.800000pt" viewBox="0 0 40.800000 104.800000"
 preserveAspectRatio="xMidYMid meet">
<metadata>
Created by potrace 1.13, written by Peter Selinger 2001-2015
</metadata>
<g transform="translate(0.000000,104.800000) scale(0.080000,-0.080000)"
fill="#000000" stroke="none">
<path d="M300 1271 l0 -39 -79 -3 c-71 -4 -83 -7 -117 -35 -21 -17 -50 -53
-64 -80 l-25 -49 -3 -532 -3 -533 46 0 45 0 0 501 c0 538 2 557 51 610 24 26
34 29 88 29 61 0 61 0 61 -29 0 -17 4 -32 9 -35 12 -8 203 104 198 117 -3 11
-183 117 -198 117 -5 0 -9 -18 -9 -39z"/>
</g>
</svg>
